<svg xmlns="http://www.w3.org/2000/svg" xmlns:xlink="http://www.w3.org/1999/xlink" width="1080" zoomAndPan="magnify" viewBox="0 0 810 809.999993" height="1080" preserveAspectRatio="xMidYMid meet" version="1.0"><defs><clipPath id="de5289ccaf"><path d="M 52.144531 285 L 328 285 L 328 730 L 52.144531 730 Z M 52.144531 285 " clip-rule="nonzero"/></clipPath><clipPath id="9222873c72"><path d="M 156 35 L 757.894531 35 L 757.894531 809 L 156 809 Z M 156 35 " clip-rule="nonzero"/></clipPath></defs><path fill="#25f4ee" d="M 405.019531 194.875 C 405.515625 130.449219 405.019531 66.023438 405.515625 1.597656 L 536.851562 1.597656 C 536.355469 12.996094 537.84375 24.394531 539.824219 35.296875 L 443.179688 35.296875 L 443.179688 558.132812 C 443.675781 580.433594 438.226562 602.734375 427.320312 622.0625 C 410.46875 651.796875 378.253906 672.117188 344.058594 675.089844 C 322.25 676.578125 300.445312 672.613281 280.621094 662.203125 C 265.753906 654.277344 253.363281 642.878906 243.449219 629 C 277.152344 647.832031 320.765625 645.851562 353.476562 625.035156 C 384.699219 605.710938 405.515625 569.035156 405.515625 531.867188 C 405.019531 418.875 405.019531 306.875 405.019531 194.875 Z M 621.601562 157.707031 C 639.9375 169.105469 660.257812 178.023438 681.570312 182.980469 C 693.960938 185.953125 706.847656 186.945312 719.730469 186.945312 L 719.730469 216.679688 C 682.066406 207.761719 647.371094 186.945312 621.601562 157.707031 Z M 621.601562 157.707031 " fill-opacity="1" fill-rule="nonzero"/><g clip-path="url(#de5289ccaf)"><path fill="#25f4ee" d="M 167.621094 321.742188 C 214.703125 292.007812 272.195312 280.113281 327.207031 288.042969 L 327.207031 319.265625 C 312.339844 319.761719 297.964844 321.742188 283.59375 324.222656 C 248.40625 331.65625 214.703125 346.523438 185.464844 367.832031 C 154.238281 391.125 130.449219 422.839844 113.597656 458.523438 C 97.738281 492.222656 89.808594 529.390625 90.304688 566.558594 C 90.304688 607.691406 101.703125 647.335938 121.035156 683.515625 C 129.953125 699.867188 140.363281 716.222656 154.238281 729.109375 C 126.484375 709.78125 103.191406 683.515625 85.84375 653.78125 C 62.550781 614.628906 51.152344 568.539062 52.144531 522.453125 C 53.628906 480.328125 66.019531 438.699219 87.828125 402.523438 C 107.652344 370.308594 135.40625 341.566406 167.621094 321.742188 Z M 167.621094 321.742188 " fill-opacity="1" fill-rule="nonzero"/></g><path fill="#ffffff" d="M 443.179688 35.296875 L 540.816406 35.296875 C 544.285156 54.128906 551.222656 71.972656 559.648438 88.820312 C 573.527344 115.085938 592.855469 138.378906 617.636719 153.742188 C 619.121094 154.734375 620.609375 156.21875 621.601562 157.707031 C 647.371094 186.945312 682.066406 207.761719 720.226562 216.183594 C 720.722656 250.378906 720.226562 285.070312 720.226562 319.265625 C 655.796875 319.761719 591.367188 299.441406 539.328125 261.777344 C 539.328125 343.546875 539.328125 425.8125 539.824219 507.585938 C 539.824219 518.488281 540.320312 529.390625 539.824219 540.789062 C 536.851562 580.433594 524.460938 620.082031 504.636719 654.769531 C 487.785156 685 463.996094 711.761719 436.242188 732.082031 C 400.558594 758.84375 355.953125 773.710938 311.347656 774.703125 C 288.550781 775.195312 265.753906 774.207031 243.449219 769.25 C 212.226562 762.3125 182.488281 749.425781 156.222656 731.089844 L 154.734375 729.605469 C 141.847656 716.71875 130.945312 700.363281 121.527344 684.011719 C 102.199219 648.824219 90.800781 608.1875 90.800781 567.054688 C 90.304688 529.886719 98.234375 492.222656 114.09375 459.019531 C 130.449219 423.832031 155.230469 391.621094 185.957031 368.328125 C 215.199219 346.523438 248.40625 331.65625 284.089844 324.714844 C 298.460938 321.742188 313.332031 320.257812 327.703125 319.761719 C 328.199219 332.644531 327.703125 346.027344 328.199219 358.414062 L 328.199219 424.824219 C 311.84375 419.371094 293.507812 419.371094 276.160156 423.335938 C 255.839844 427.796875 236.511719 437.210938 220.15625 450.59375 C 210.242188 459.019531 201.816406 469.425781 196.367188 480.824219 C 185.957031 500.152344 182.488281 522.949219 184.96875 544.753906 C 187.445312 566.0625 196.367188 586.382812 210.242188 602.238281 C 219.164062 613.636719 231.554688 622.0625 243.449219 629.992188 C 253.363281 643.867188 265.753906 655.265625 280.621094 663.195312 C 299.949219 673.601562 322.25 678.0625 344.058594 676.082031 C 378.253906 673.601562 409.976562 652.789062 427.320312 623.054688 C 438.226562 603.726562 443.675781 581.425781 443.179688 559.125 C 443.675781 383.691406 443.179688 209.246094 443.179688 35.300781 Z M 443.179688 35.296875 " fill-opacity="1" fill-rule="nonzero"/><g clip-path="url(#9222873c72)"><path fill="#fe2c55" d="M 540.320312 35.296875 C 551.71875 35.792969 563.117188 35.296875 575.011719 35.296875 C 575.011719 73.457031 586.90625 111.617188 609.210938 142.839844 C 612.183594 146.804688 614.664062 150.273438 617.636719 153.742188 C 592.359375 138.378906 572.535156 115.085938 559.648438 88.820312 C 551.222656 72.46875 544.285156 54.128906 540.320312 35.296875 Z M 719.730469 216.183594 C 732.121094 219.160156 745.007812 220.148438 757.894531 220.148438 L 757.894531 352.964844 C 692.96875 353.460938 628.042969 331.65625 575.011719 293.496094 L 575.011719 556.648438 C 575.507812 576.46875 574.023438 596.292969 569.5625 616.117188 C 557.171875 675.585938 521.488281 729.109375 472.917969 763.796875 C 447.144531 782.628906 417.410156 795.515625 386.183594 802.453125 C 348.519531 810.878906 309.367188 810.382812 272.195312 800.964844 C 228.085938 789.570312 187.445312 765.285156 156.71875 731.585938 C 182.984375 750.417969 212.722656 762.808594 243.945312 769.746094 C 266.246094 774.699219 289.046875 776.1875 311.84375 775.195312 C 356.449219 774.207031 400.558594 759.339844 436.738281 732.578125 C 464.492188 712.257812 487.289062 685.496094 505.132812 655.265625 C 524.957031 620.578125 537.84375 581.425781 540.320312 541.285156 C 540.816406 530.382812 540.816406 519.476562 540.320312 508.082031 C 539.824219 425.8125 539.824219 344.042969 539.824219 262.273438 C 592.359375 299.9375 656.789062 320.257812 720.722656 319.761719 C 719.730469 285.070312 720.226562 250.378906 719.730469 216.183594 Z M 719.730469 216.183594 " fill-opacity="1" fill-rule="nonzero"/></g><path fill="#fe2c55" d="M 327.703125 318.769531 C 340.09375 318.769531 353.476562 319.265625 365.867188 321.246094 L 365.867188 457.53125 C 347.527344 451.089844 327.207031 450.59375 308.375 455.054688 C 272.691406 462.984375 242.457031 490.238281 229.574219 524.929688 C 217.183594 559.125 222.136719 598.769531 243.945312 628.011719 C 231.554688 620.578125 220.15625 611.65625 210.738281 600.257812 C 196.863281 584.398438 187.941406 563.585938 185.464844 542.769531 C 182.984375 520.964844 186.453125 498.167969 196.863281 478.839844 C 202.3125 467.441406 211.234375 457.035156 220.652344 448.609375 C 236.511719 434.734375 256.335938 426.308594 276.65625 421.355469 C 293.507812 417.390625 311.84375 417.390625 328.695312 422.839844 L 328.695312 356.433594 C 327.703125 345.035156 328.695312 332.148438 327.703125 318.769531 Z M 327.703125 318.769531 " fill-opacity="1" fill-rule="nonzero"/></svg>