<svg xmlns="http://www.w3.org/2000/svg" xmlns:xlink="http://www.w3.org/1999/xlink" width="1080" zoomAndPan="magnify" viewBox="0 0 810 809.999993" height="1080" preserveAspectRatio="xMidYMid meet" version="1.0"><defs><g/></defs><path stroke-linecap="butt" transform="matrix(0.782682, 0, 0, 0.782682, 535.835953, 326.632064)" fill="none" stroke-linejoin="miter" d="M 145.812786 114.885436 C 145.812786 92.147103 129.30803 78.971247 100.945004 78.971247 C 99.352922 78.971247 97.616104 78.971247 96.068939 79.066073 L 141.590523 29.791366 C 145.812786 25.479268 146.751067 23.747442 146.751067 21.915798 C 146.751067 19.620005 145.01425 18.586898 140.981639 18.586898 L 70.236276 18.586898 C 65.360212 18.586898 62.735022 20.792856 62.360708 24.540988 L 59.500948 50.937617 C 59.126634 54.311435 60.908369 55.813682 63.533559 55.813682 C 66.203666 55.813682 67.750831 54.406261 68.314797 52.110468 L 70.989895 41.325231 C 71.878268 37.671926 73.989399 36.264505 78.301497 36.264505 L 125.27542 36.264505 L 87.160264 76.954942 C 84.255587 79.909527 83.506959 81.361866 83.506959 83.19351 C 83.506959 85.678955 84.914379 86.941642 88.383023 86.941642 L 94.616601 86.941642 C 114.869488 86.941642 124.10756 97.117994 124.10756 118.633568 C 124.10756 138.79662 113.556894 149.157634 99.023525 149.157634 C 85.707925 149.247469 78.301497 142.639578 78.301497 132.37339 L 78.301497 124.118517 C 78.301497 117.086403 74.832853 112.869131 67.940483 112.869131 C 61.003196 112.869131 56.032304 118.074592 56.032304 126.324474 C 56.032304 142.82424 70.895069 155.670699 98.554385 155.670699 C 127.20189 155.670699 145.812786 139.355596 145.812786 114.885436 Z M 162.676884 149.437122 C 162.676884 151.638089 164.129222 153.000592 167.408214 153.000592 L 222.681928 153.000592 C 267.924024 153.000592 293.946339 126.044987 293.946339 89.427087 C 293.946339 48.172684 262.159587 18.586898 214.247383 18.586898 L 167.408214 18.586898 C 164.129222 18.586898 162.676884 19.899493 162.676884 22.150368 C 162.676884 24.071847 163.660082 25.294607 166.330189 26.088152 L 172.568757 27.216086 C 175.752923 27.964714 177.394914 29.701531 177.394914 32.416556 L 177.394914 139.170934 C 177.394914 141.841041 175.752923 143.577859 172.568757 144.371404 L 166.330189 145.499338 C 163.660082 146.297874 162.676884 147.515643 162.676884 149.437122 Z M 221.279497 145.125023 L 210.214773 145.125023 C 203.227577 145.125023 199.853759 142.639578 199.853759 137.059803 L 199.853759 26.462466 L 211.667112 26.462466 C 247.671136 26.462466 270.504295 51.032443 270.504295 88.957947 C 270.504295 125.341276 251.703747 145.125023 221.279497 145.125023 Z M 221.279497 145.125023 " stroke="#002557" stroke-width="23.52392" stroke-opacity="1" stroke-miterlimit="4"/><g fill="#004aad" fill-opacity="1"><g transform="translate(573.453587, 446.382349)"><g><path d="M 76.5 -29.828125 C 76.5 -47.640625 63.578125 -57.9375 41.40625 -57.9375 C 40.125 -57.9375 38.78125 -57.9375 37.578125 -57.859375 L 73.1875 -96.421875 C 76.5 -99.796875 77.25 -101.15625 77.25 -102.578125 C 77.25 -104.375 75.90625 -105.203125 72.75 -105.203125 L 17.359375 -105.203125 C 13.53125 -105.203125 11.5 -103.484375 11.203125 -100.546875 L 8.9375 -79.875 C 8.640625 -77.25 10.0625 -76.046875 12.09375 -76.046875 C 14.203125 -76.046875 15.40625 -77.171875 15.859375 -78.984375 L 17.953125 -87.390625 C 18.640625 -90.25 20.296875 -91.375 23.671875 -91.375 L 60.421875 -91.375 L 30.578125 -59.515625 C 28.328125 -57.1875 27.734375 -56.0625 27.734375 -54.640625 C 27.734375 -52.671875 28.859375 -51.703125 31.5625 -51.703125 L 36.453125 -51.703125 C 52.296875 -51.703125 59.515625 -43.734375 59.515625 -26.90625 C 59.515625 -11.125 51.25 -3 39.90625 -3 C 29.453125 -2.9375 23.671875 -8.109375 23.671875 -16.15625 L 23.671875 -22.625 C 23.671875 -28.109375 20.96875 -31.40625 15.5625 -31.40625 C 10.140625 -31.40625 6.234375 -27.359375 6.234375 -20.890625 C 6.234375 -7.96875 17.890625 2.109375 39.53125 2.109375 C 61.921875 2.109375 76.5 -10.671875 76.5 -29.828125 Z M 76.5 -29.828125 "/></g></g></g><g fill="#004aad" fill-opacity="1"><g transform="translate(654.608626, 446.382349)"><g><path d="M 8.5625 -2.78125 C 8.5625 -1.046875 9.6875 0 12.25 0 L 55.53125 0 C 90.921875 0 111.296875 -21.109375 111.296875 -49.75 C 111.296875 -82.0625 86.421875 -105.203125 48.921875 -105.203125 L 12.25 -105.203125 C 9.6875 -105.203125 8.5625 -104.15625 8.5625 -102.421875 C 8.5625 -100.921875 9.3125 -99.953125 11.421875 -99.34375 L 16.3125 -98.4375 C 18.78125 -97.84375 20.0625 -96.484375 20.0625 -94.390625 L 20.0625 -10.828125 C 20.0625 -8.71875 18.78125 -7.359375 16.3125 -6.765625 L 11.421875 -5.859375 C 9.3125 -5.265625 8.5625 -4.28125 8.5625 -2.78125 Z M 54.40625 -6.15625 L 45.765625 -6.15625 C 40.28125 -6.15625 37.65625 -8.109375 37.65625 -12.46875 L 37.65625 -99.046875 L 46.890625 -99.046875 C 75.078125 -99.046875 92.953125 -79.8125 92.953125 -50.125 C 92.953125 -21.640625 78.234375 -6.15625 54.40625 -6.15625 Z M 54.40625 -6.15625 "/></g></g></g><path stroke-linecap="butt" transform="matrix(4.692601, 0, 0, 4.692601, 7.501689, 290.668335)" fill="none" stroke-linejoin="miter" d="M 16.86046 10.215473 C 16.86046 10.535957 17.08688 10.676637 17.48478 10.801502 L 18.656006 11.012106 C 19.576671 11.285142 19.740659 11.729658 19.40519 12.705263 L 13.917828 28.534705 L 8.196554 12.276563 C 7.907702 11.440806 8.009258 11.152786 8.563654 11.027089 L 9.859744 10.801502 C 10.272628 10.691621 10.499048 10.512649 10.499048 10.215473 C 10.499048 9.84088 10.226012 9.622784 9.687432 9.622784 L 2.81158 9.622784 C 2.249692 9.622784 1.991639 9.84088 1.991639 10.215473 C 1.991639 10.496833 2.18726 10.691621 2.569344 10.832301 L 3.256097 11.027089 C 3.708937 11.183586 3.912049 11.39419 4.122654 11.971895 L 10.30426 29.439554 C 10.484065 29.954826 10.577297 30.275311 10.577297 30.626595 L 10.577297 31.297532 C 10.577297 31.757864 10.835349 32.000101 11.279865 32.000101 L 14.253297 32.000101 C 14.675337 32.000101 14.925066 31.742048 14.925066 31.313348 L 14.925066 30.641579 C 14.925066 30.227863 15.026622 29.876578 15.228902 29.268074 L 20.965992 12.799328 C 21.356401 11.667226 21.676053 11.25351 22.277065 11.012106 L 22.948834 10.801502 C 23.448291 10.629189 23.588971 10.465201 23.588971 10.200489 C 23.588971 9.825896 23.354227 9.622784 22.761538 9.622784 L 17.664585 9.622784 C 17.118512 9.622784 16.86046 9.84088 16.86046 10.215473 Z M 35.179692 29.697606 L 35.179692 11.925279 C 35.179692 11.472438 35.452728 11.183586 35.960509 11.058722 L 37.021854 10.871425 C 37.450554 10.739069 37.622867 10.535957 37.622867 10.215473 C 37.622867 9.84088 37.388122 9.622784 36.84205 9.622784 L 29.77807 9.622784 C 29.216181 9.622784 28.974777 9.84088 28.974777 10.215473 C 28.974777 10.535957 29.153749 10.739069 29.599098 10.871425 L 30.637135 11.058722 C 31.152408 11.183586 31.44126 11.472438 31.44126 11.925279 L 31.44126 29.697606 C 31.44126 30.142123 31.152408 30.430975 30.637135 30.564163 L 29.599098 30.75146 C 29.153749 30.883816 28.974777 31.086928 28.974777 31.40658 C 28.974777 31.773681 29.216181 32.000101 29.77807 32.000101 L 36.84205 32.000101 C 37.388122 32.000101 37.622867 31.773681 37.622867 31.40658 C 37.622867 31.086928 37.450554 30.883816 37.021854 30.75146 L 35.960509 30.564163 C 35.452728 30.430975 35.179692 30.142123 35.179692 29.697606 Z M 62.961128 17.646553 C 62.961128 12.994116 59.057876 9.622784 52.408445 9.622784 L 45.235417 9.622784 C 44.688512 9.622784 44.447108 9.84088 44.447108 10.215473 C 44.447108 10.535957 44.611096 10.739069 45.055612 10.871425 L 46.093649 11.058722 C 46.624738 11.183586 46.897774 11.472438 46.897774 11.925279 L 46.897774 29.697606 C 46.897774 30.142123 46.624738 30.430975 46.093649 30.564163 L 45.055612 30.75146 C 44.611096 30.883816 44.447108 31.086928 44.447108 31.40658 C 44.447108 31.773681 44.688512 32.000101 45.235417 32.000101 L 52.923717 32.000101 C 53.46979 32.000101 53.703702 31.773681 53.703702 31.40658 C 53.703702 31.040312 53.516406 30.828875 53.048581 30.75146 L 51.432839 30.564163 C 50.894259 30.477591 50.636206 30.157939 50.636206 29.697606 L 50.636206 23.765728 C 51.791616 24.147812 53.150137 24.358416 54.632691 24.358416 C 59.63558 24.358416 62.961128 21.736269 62.961128 17.646553 Z M 50.636206 10.918041 L 52.31438 10.918041 C 56.583901 10.918041 59.23768 13.556004 59.23768 17.552489 C 59.23768 20.987085 56.981801 23.000727 53.735334 23.000727 C 52.649848 23.000727 51.565195 22.836739 50.636206 22.50127 Z M 68.935461 10.215473 C 68.935461 10.535957 69.099449 10.739069 69.543965 10.871425 L 70.582002 11.058722 C 71.113091 11.183586 71.386127 11.472438 71.386127 11.925279 L 71.386127 29.697606 C 71.386127 30.142123 71.113091 30.430975 70.582002 30.564163 L 69.543965 30.75146 C 69.099449 30.883816 68.935461 31.086928 68.935461 31.40658 C 68.935461 31.773681 69.176865 32.000101 69.723769 32.000101 L 82.430776 32.000101 C 83.374748 32.000101 83.820097 32.592789 84.475218 32.592789 C 85.037106 32.592789 85.295159 32.304769 85.466639 31.664633 L 86.761896 26.435323 C 86.887593 25.927542 86.699464 25.60789 86.247456 25.545458 C 85.880355 25.490518 85.575687 25.63869 85.404207 26.03659 C 83.757665 30.002275 82.828676 30.689027 80.767585 30.689027 L 76.911781 30.689027 C 75.702264 30.689027 75.124559 30.212879 75.124559 29.268074 L 75.124559 21.478217 L 79.823613 21.478217 C 81.103886 21.478217 81.595018 21.798702 82.399143 23.273763 C 82.609747 23.609231 82.921908 23.734096 83.281517 23.640864 C 83.647785 23.530983 83.757665 23.257947 83.647785 22.790123 L 82.461575 18.224258 C 82.368344 17.833849 82.126107 17.614921 81.774823 17.646553 C 81.439354 17.677353 81.22875 17.903773 81.150502 18.349122 C 80.963206 19.800875 80.556981 20.190452 79.245908 20.190452 L 75.124559 20.190452 L 75.124559 10.933857 L 80.307253 10.933857 C 82.399143 10.933857 83.21076 11.425822 84.685822 14.672289 C 84.90475 15.117638 85.295159 15.29661 85.723859 15.164254 C 86.106776 15.055206 86.247456 14.750538 86.122592 14.321005 L 84.888934 9.84088 C 84.717454 9.209068 84.475218 8.936031 83.968269 8.936031 C 83.21076 8.936031 82.859476 9.622784 81.853071 9.622784 L 69.723769 9.622784 C 69.176865 9.622784 68.935461 9.84088 68.935461 10.215473 Z M 111.572398 17.232837 C 111.572398 12.815144 107.748226 9.622784 100.910667 9.622784 L 93.605283 9.622784 C 93.042562 9.622784 92.801158 9.84088 92.801158 10.215473 C 92.801158 10.535957 92.98013 10.739069 93.425478 10.871425 L 94.463515 11.058722 C 94.978788 11.183586 95.26764 11.472438 95.26764 11.925279 L 95.26764 29.697606 C 95.26764 30.142123 94.978788 30.430975 94.463515 30.564163 L 93.425478 30.75146 C 92.98013 30.883816 92.801158 31.086928 92.801158 31.40658 C 92.801158 31.773681 93.042562 32.000101 93.605283 32.000101 L 100.973099 32.000101 C 101.519171 32.000101 101.753083 31.773681 101.753083 31.40658 C 101.753083 31.086928 101.613235 30.899632 101.144579 30.75146 L 99.724457 30.564163 C 99.248309 30.430975 99.006072 30.142123 99.006072 29.697606 L 99.006072 23.125591 C 100.075742 23.530983 101.433431 23.749912 102.877693 23.749912 C 103.095789 23.749912 103.322209 23.734096 103.532813 23.719112 L 107.302878 29.82247 C 107.638346 30.352727 107.575914 30.641579 107.076457 30.782259 L 106.483769 30.915448 C 106.147468 31.024496 105.991804 31.188484 105.991804 31.40658 C 105.991804 31.789497 106.280657 32.000101 106.787605 32.000101 L 113.024152 32.000101 C 113.58604 32.000101 113.859077 31.773681 113.859077 31.40658 C 113.859077 31.086928 113.680105 30.915448 112.945904 30.735643 C 112.126795 30.548347 111.728895 30.227863 111.345978 29.619358 L 107.092273 23.016543 C 109.863425 22.13417 111.572398 19.995664 111.572398 17.232837 Z M 99.006072 10.848117 L 100.793294 10.848117 C 105.016199 10.848117 107.669978 13.54102 107.669978 17.24782 C 107.669978 20.589184 105.656336 22.423022 102.284172 22.423022 C 101.097963 22.423022 99.919245 22.235726 99.006072 21.900258 Z M 99.006072 10.848117 " stroke="#bfbfbf" stroke-width="3.916619" stroke-opacity="1" stroke-miterlimit="4"/><g fill="#000000" fill-opacity="1"><g transform="translate(14.54059, 440.831558)"><g><path d="M 72.078125 -102.234375 C 72.078125 -100.734375 73.125 -100.0625 75.015625 -99.453125 L 80.484375 -98.484375 C 84.828125 -97.203125 85.578125 -95.109375 84.015625 -90.53125 L 58.28125 -16.28125 L 31.421875 -92.5625 C 30.078125 -96.453125 30.53125 -97.8125 33.15625 -98.40625 L 39.234375 -99.453125 C 41.171875 -99.984375 42.234375 -100.8125 42.234375 -102.234375 C 42.234375 -103.96875 40.953125 -105.015625 38.40625 -105.015625 L 6.15625 -105.015625 C 3.53125 -105.015625 2.328125 -103.96875 2.328125 -102.234375 C 2.328125 -100.890625 3.21875 -99.984375 5.03125 -99.3125 L 8.25 -98.40625 C 10.34375 -97.65625 11.328125 -96.6875 12.296875 -93.984375 L 41.328125 -12 C 42.15625 -9.59375 42.609375 -8.09375 42.609375 -6.453125 L 42.609375 -3.296875 C 42.609375 -1.125 43.796875 0 45.90625 0 L 59.859375 0 C 61.8125 0 63 -1.203125 63 -3.21875 L 63 -6.375 C 63 -8.328125 63.453125 -9.96875 64.4375 -12.828125 L 91.359375 -90.078125 C 93.15625 -95.40625 94.65625 -97.359375 97.515625 -98.484375 L 100.65625 -99.453125 C 102.984375 -100.28125 103.65625 -101.03125 103.65625 -102.3125 C 103.65625 -104.03125 102.53125 -105.015625 99.765625 -105.015625 L 75.828125 -105.015625 C 73.28125 -105.015625 72.078125 -103.96875 72.078125 -102.234375 Z M 72.078125 -102.234375 "/></g></g></g><g fill="#000000" fill-opacity="1"><g transform="translate(135.080082, 440.831558)"><g><path d="M 37.5 -10.796875 L 37.5 -94.203125 C 37.5 -96.3125 38.78125 -97.65625 41.171875 -98.265625 L 46.125 -99.15625 C 48.15625 -99.765625 48.984375 -100.734375 48.984375 -102.234375 C 48.984375 -103.96875 47.859375 -105.015625 45.3125 -105.015625 L 12.15625 -105.015625 C 9.53125 -105.015625 8.40625 -103.96875 8.40625 -102.234375 C 8.40625 -100.734375 9.21875 -99.765625 11.328125 -99.15625 L 16.203125 -98.265625 C 18.609375 -97.65625 19.953125 -96.3125 19.953125 -94.203125 L 19.953125 -10.796875 C 19.953125 -8.703125 18.609375 -7.34375 16.203125 -6.75 L 11.328125 -5.84375 C 9.21875 -5.25 8.40625 -4.28125 8.40625 -2.78125 C 8.40625 -1.046875 9.53125 0 12.15625 0 L 45.3125 0 C 47.859375 0 48.984375 -1.046875 48.984375 -2.78125 C 48.984375 -4.28125 48.15625 -5.25 46.125 -5.84375 L 41.171875 -6.75 C 38.78125 -7.34375 37.5 -8.703125 37.5 -10.796875 Z M 37.5 -10.796875 "/></g></g></g><g fill="#000000" fill-opacity="1"><g transform="translate(207.539532, 440.831558)"><g><path d="M 95.40625 -67.359375 C 95.40625 -89.1875 77.109375 -105.015625 45.90625 -105.015625 L 12.21875 -105.015625 C 9.671875 -105.015625 8.546875 -103.96875 8.546875 -102.234375 C 8.546875 -100.734375 9.296875 -99.765625 11.40625 -99.15625 L 16.28125 -98.265625 C 18.75 -97.65625 20.03125 -96.3125 20.03125 -94.203125 L 20.03125 -10.796875 C 20.03125 -8.703125 18.75 -7.34375 16.28125 -6.75 L 11.40625 -5.84375 C 9.296875 -5.25 8.546875 -4.28125 8.546875 -2.78125 C 8.546875 -1.046875 9.671875 0 12.21875 0 L 48.3125 0 C 50.859375 0 51.984375 -1.046875 51.984375 -2.78125 C 51.984375 -4.5 51.078125 -5.46875 48.90625 -5.84375 L 41.328125 -6.75 C 38.78125 -7.125 37.578125 -8.625 37.578125 -10.796875 L 37.578125 -38.625 C 42.984375 -36.828125 49.359375 -35.859375 56.328125 -35.859375 C 79.8125 -35.859375 95.40625 -48.15625 95.40625 -67.359375 Z M 37.578125 -98.9375 L 45.453125 -98.9375 C 65.484375 -98.9375 77.9375 -86.5625 77.9375 -67.8125 C 77.9375 -51.6875 67.359375 -42.234375 52.125 -42.234375 C 47.03125 -42.234375 41.921875 -42.984375 37.578125 -44.5625 Z M 37.578125 -98.9375 "/></g></g></g><g fill="#000000" fill-opacity="1"><g transform="translate(322.453421, 440.831558)"><g><path d="M 8.546875 -102.234375 C 8.546875 -100.734375 9.296875 -99.765625 11.40625 -99.15625 L 16.28125 -98.265625 C 18.75 -97.65625 20.03125 -96.3125 20.03125 -94.203125 L 20.03125 -10.796875 C 20.03125 -8.703125 18.75 -7.34375 16.28125 -6.75 L 11.40625 -5.84375 C 9.296875 -5.25 8.546875 -4.28125 8.546875 -2.78125 C 8.546875 -1.046875 9.671875 0 12.21875 0 L 71.859375 0 C 76.28125 0 78.390625 2.78125 81.453125 2.78125 C 84.078125 2.78125 85.28125 1.421875 86.109375 -1.578125 L 92.1875 -26.109375 C 92.78125 -28.5 91.890625 -30 89.78125 -30.296875 C 88.0625 -30.53125 86.640625 -29.859375 85.8125 -27.984375 C 78.078125 -9.375 73.734375 -6.15625 64.0625 -6.15625 L 45.984375 -6.15625 C 40.28125 -6.15625 37.578125 -8.40625 37.578125 -12.828125 L 37.578125 -49.359375 L 59.625 -49.359375 C 65.625 -49.359375 67.953125 -47.859375 71.703125 -40.953125 C 72.6875 -39.375 74.1875 -38.78125 75.828125 -39.234375 C 77.5625 -39.75 78.078125 -41.03125 77.5625 -43.203125 L 72 -64.65625 C 71.5625 -66.453125 70.4375 -67.5 68.78125 -67.359375 C 67.203125 -67.203125 66.234375 -66.15625 65.859375 -64.0625 C 64.953125 -57.234375 63.078125 -55.4375 56.9375 -55.4375 L 37.578125 -55.4375 L 37.578125 -98.859375 L 61.875 -98.859375 C 71.703125 -98.859375 75.53125 -96.53125 82.4375 -81.3125 C 83.484375 -79.203125 85.28125 -78.390625 87.3125 -78.984375 C 89.109375 -79.515625 89.78125 -80.9375 89.1875 -82.953125 L 83.40625 -103.96875 C 82.578125 -106.96875 81.453125 -108.234375 79.0625 -108.234375 C 75.53125 -108.234375 73.875 -105.015625 69.15625 -105.015625 L 12.21875 -105.015625 C 9.671875 -105.015625 8.546875 -103.96875 8.546875 -102.234375 Z M 8.546875 -102.234375 "/></g></g></g><g fill="#000000" fill-opacity="1"><g transform="translate(434.59205, 440.831558)"><g><path d="M 96.453125 -69.3125 C 96.453125 -90.015625 78.53125 -105.015625 46.4375 -105.015625 L 12.15625 -105.015625 C 9.53125 -105.015625 8.40625 -103.96875 8.40625 -102.234375 C 8.40625 -100.734375 9.21875 -99.765625 11.328125 -99.15625 L 16.203125 -98.265625 C 18.609375 -97.65625 19.953125 -96.3125 19.953125 -94.203125 L 19.953125 -10.796875 C 19.953125 -8.703125 18.609375 -7.34375 16.203125 -6.75 L 11.328125 -5.84375 C 9.21875 -5.25 8.40625 -4.28125 8.40625 -2.78125 C 8.40625 -1.046875 9.53125 0 12.15625 0 L 46.734375 0 C 49.28125 0 50.40625 -1.046875 50.40625 -2.78125 C 50.40625 -4.28125 49.734375 -5.171875 47.5625 -5.84375 L 40.875 -6.75 C 38.625 -7.34375 37.5 -8.703125 37.5 -10.796875 L 37.5 -41.625 C 42.53125 -39.75 48.90625 -38.703125 55.65625 -38.703125 C 56.703125 -38.703125 57.75 -38.78125 58.734375 -38.859375 L 76.4375 -10.203125 C 78.015625 -7.71875 77.703125 -6.375 75.390625 -5.703125 L 72.609375 -5.09375 C 71.03125 -4.578125 70.28125 -3.828125 70.28125 -2.78125 C 70.28125 -0.96875 71.625 0 74.03125 0 L 103.28125 0 C 105.90625 0 107.1875 -1.046875 107.1875 -2.78125 C 107.1875 -4.28125 106.359375 -5.09375 102.90625 -5.921875 C 99.078125 -6.828125 97.203125 -8.328125 95.40625 -11.171875 L 75.453125 -42.15625 C 88.4375 -46.28125 96.453125 -56.328125 96.453125 -69.3125 Z M 37.5 -99.234375 L 45.90625 -99.234375 C 65.703125 -99.234375 78.15625 -86.640625 78.15625 -69.234375 C 78.15625 -53.5625 68.703125 -44.9375 52.875 -44.9375 C 47.328125 -44.9375 41.78125 -45.828125 37.5 -47.40625 Z M 37.5 -99.234375 "/></g></g></g><g fill="#ffffff" fill-opacity="1"><g transform="translate(104.671873, 535.689377)"><g><path d="M 3.015625 0 L 3.015625 -2.578125 L 9 -2.578125 L 9 -19.734375 L 3.015625 -19.734375 L 3.015625 -22.3125 L 18.453125 -22.3125 L 18.453125 -19.734375 L 12.453125 -19.734375 L 12.453125 -2.578125 L 18.453125 -2.578125 L 18.453125 0 Z M 3.015625 0 "/></g></g></g><g fill="#ffffff" fill-opacity="1"><g transform="translate(126.123204, 535.689377)"><g><path d="M 1.609375 0 L 1.609375 -18.875 L 4.734375 -18.875 L 4.734375 -15.125 C 5.441406 -16.726562 6.09375 -17.820312 6.6875 -18.40625 C 7.28125 -19 8.035156 -19.296875 8.953125 -19.296875 C 10.929688 -19.296875 12.046875 -17.90625 12.296875 -15.125 C 13.421875 -17.90625 14.828125 -19.296875 16.515625 -19.296875 C 18.742188 -19.296875 19.859375 -17.472656 19.859375 -13.828125 L 19.859375 0 L 16.75 0 L 16.75 -13.0625 C 16.75 -14.351562 16.671875 -15.21875 16.515625 -15.65625 C 16.367188 -16.09375 16.066406 -16.3125 15.609375 -16.3125 C 15.066406 -16.3125 14.476562 -15.894531 13.84375 -15.0625 C 13.21875 -14.238281 12.703125 -13.195312 12.296875 -11.9375 L 12.296875 0 L 9.1875 0 L 9.1875 -13.0625 C 9.1875 -14.351562 9.109375 -15.21875 8.953125 -15.65625 C 8.804688 -16.09375 8.503906 -16.3125 8.046875 -16.3125 C 7.503906 -16.3125 6.925781 -15.90625 6.3125 -15.09375 C 5.695312 -14.289062 5.171875 -13.238281 4.734375 -11.9375 L 4.734375 0 Z M 1.609375 0 "/></g></g></g><g fill="#ffffff" fill-opacity="1"><g transform="translate(147.574535, 535.689377)"><g><path d="M 3.015625 6.875 L 3.015625 -18.875 L 6.4375 -18.875 L 6.4375 -15.328125 C 8.09375 -17.972656 10.148438 -19.296875 12.609375 -19.296875 C 14.742188 -19.296875 16.429688 -18.46875 17.671875 -16.8125 C 18.910156 -15.164062 19.53125 -12.914062 19.53125 -10.0625 C 19.53125 -6.9375 18.796875 -4.40625 17.328125 -2.46875 C 15.867188 -0.53125 13.957031 0.4375 11.59375 0.4375 C 9.5625 0.4375 7.84375 -0.421875 6.4375 -2.140625 L 6.4375 6.875 Z M 6.4375 -4.71875 C 8.019531 -3 9.582031 -2.140625 11.125 -2.140625 C 12.632812 -2.140625 13.800781 -2.800781 14.625 -4.125 C 15.457031 -5.457031 15.875 -7.316406 15.875 -9.703125 C 15.875 -14.148438 14.554688 -16.375 11.921875 -16.375 C 9.960938 -16.375 8.132812 -15.171875 6.4375 -12.765625 Z M 6.4375 -4.71875 "/></g></g></g><g fill="#ffffff" fill-opacity="1"><g transform="translate(169.025866, 535.689377)"><g><path d="M 5.359375 0 L 5.359375 -18.875 L 8.78125 -18.875 L 8.78125 -15.015625 C 9.914062 -16.703125 10.96875 -17.835938 11.9375 -18.421875 C 12.90625 -19.003906 14.203125 -19.296875 15.828125 -19.296875 C 16.828125 -19.296875 17.984375 -19.148438 19.296875 -18.859375 L 19.296875 -13.515625 L 16.734375 -13.515625 L 16.734375 -16.203125 C 16.222656 -16.316406 15.75 -16.375 15.3125 -16.375 C 12.9375 -16.375 10.757812 -15.015625 8.78125 -12.296875 L 8.78125 0 Z M 5.359375 0 "/></g></g></g><g fill="#ffffff" fill-opacity="1"><g transform="translate(190.477197, 535.689377)"><g><path d="M 9.875 0 L 9.875 -16.3125 L 3.015625 -16.3125 L 3.015625 -18.875 L 13.296875 -18.875 L 13.296875 0 Z M 9.4375 -23.15625 L 9.4375 -27.453125 L 13.734375 -27.453125 L 13.734375 -23.15625 Z M 9.4375 -23.15625 "/></g></g></g><g fill="#ffffff" fill-opacity="1"><g transform="translate(211.928528, 535.689377)"><g><path d="M 1.609375 0 L 1.609375 -18.875 L 4.734375 -18.875 L 4.734375 -15.125 C 5.441406 -16.726562 6.09375 -17.820312 6.6875 -18.40625 C 7.28125 -19 8.035156 -19.296875 8.953125 -19.296875 C 10.929688 -19.296875 12.046875 -17.90625 12.296875 -15.125 C 13.421875 -17.90625 14.828125 -19.296875 16.515625 -19.296875 C 18.742188 -19.296875 19.859375 -17.472656 19.859375 -13.828125 L 19.859375 0 L 16.75 0 L 16.75 -13.0625 C 16.75 -14.351562 16.671875 -15.21875 16.515625 -15.65625 C 16.367188 -16.09375 16.066406 -16.3125 15.609375 -16.3125 C 15.066406 -16.3125 14.476562 -15.894531 13.84375 -15.0625 C 13.21875 -14.238281 12.703125 -13.195312 12.296875 -11.9375 L 12.296875 0 L 9.1875 0 L 9.1875 -13.0625 C 9.1875 -14.351562 9.109375 -15.21875 8.953125 -15.65625 C 8.804688 -16.09375 8.503906 -16.3125 8.046875 -16.3125 C 7.503906 -16.3125 6.925781 -15.90625 6.3125 -15.09375 C 5.695312 -14.289062 5.171875 -13.238281 4.734375 -11.9375 L 4.734375 0 Z M 1.609375 0 "/></g></g></g><g fill="#ffffff" fill-opacity="1"><g transform="translate(233.379859, 535.689377)"><g><path d="M 9.875 0 L 9.875 -16.3125 L 3.015625 -16.3125 L 3.015625 -18.875 L 13.296875 -18.875 L 13.296875 0 Z M 9.4375 -23.15625 L 9.4375 -27.453125 L 13.734375 -27.453125 L 13.734375 -23.15625 Z M 9.4375 -23.15625 "/></g></g></g><g fill="#ffffff" fill-opacity="1"><g transform="translate(254.83119, 535.689377)"><g><path d="M 1.609375 0 L 1.609375 -18.875 L 4.734375 -18.875 L 4.734375 -15.125 C 5.441406 -16.726562 6.09375 -17.820312 6.6875 -18.40625 C 7.28125 -19 8.035156 -19.296875 8.953125 -19.296875 C 10.929688 -19.296875 12.046875 -17.90625 12.296875 -15.125 C 13.421875 -17.90625 14.828125 -19.296875 16.515625 -19.296875 C 18.742188 -19.296875 19.859375 -17.472656 19.859375 -13.828125 L 19.859375 0 L 16.75 0 L 16.75 -13.0625 C 16.75 -14.351562 16.671875 -15.21875 16.515625 -15.65625 C 16.367188 -16.09375 16.066406 -16.3125 15.609375 -16.3125 C 15.066406 -16.3125 14.476562 -15.894531 13.84375 -15.0625 C 13.21875 -14.238281 12.703125 -13.195312 12.296875 -11.9375 L 12.296875 0 L 9.1875 0 L 9.1875 -13.0625 C 9.1875 -14.351562 9.109375 -15.21875 8.953125 -15.65625 C 8.804688 -16.09375 8.503906 -16.3125 8.046875 -16.3125 C 7.503906 -16.3125 6.925781 -15.90625 6.3125 -15.09375 C 5.695312 -14.289062 5.171875 -13.238281 4.734375 -11.9375 L 4.734375 0 Z M 1.609375 0 "/></g></g></g><g fill="#ffffff" fill-opacity="1"><g transform="translate(276.282521, 535.689377)"><g><path d="M 10.59375 0.4375 C 7.90625 0.4375 5.769531 -0.445312 4.1875 -2.21875 C 2.613281 -4 1.828125 -6.40625 1.828125 -9.4375 C 1.828125 -12.5 2.617188 -14.90625 4.203125 -16.65625 C 5.796875 -18.414062 7.972656 -19.296875 10.734375 -19.296875 C 13.484375 -19.296875 15.648438 -18.421875 17.234375 -16.671875 C 18.828125 -14.921875 19.625 -12.519531 19.625 -9.46875 C 19.625 -6.351562 18.828125 -3.921875 17.234375 -2.171875 C 15.640625 -0.429688 13.425781 0.4375 10.59375 0.4375 Z M 10.65625 -2.140625 C 12.351562 -2.140625 13.664062 -2.78125 14.59375 -4.0625 C 15.519531 -5.34375 15.984375 -7.144531 15.984375 -9.46875 C 15.984375 -11.726562 15.519531 -13.503906 14.59375 -14.796875 C 13.664062 -16.085938 12.378906 -16.734375 10.734375 -16.734375 C 9.085938 -16.734375 7.800781 -16.085938 6.875 -14.796875 C 5.945312 -13.503906 5.484375 -11.71875 5.484375 -9.4375 C 5.484375 -7.164062 5.941406 -5.378906 6.859375 -4.078125 C 7.773438 -2.785156 9.039062 -2.140625 10.65625 -2.140625 Z M 10.65625 -2.140625 "/></g></g></g><g fill="#ffffff" fill-opacity="1"><g transform="translate(297.733852, 535.689377)"><g><path d="M 3.25 -0.765625 L 3.25 -3.859375 C 5.90625 -2.710938 8.203125 -2.140625 10.140625 -2.140625 C 11.515625 -2.140625 12.660156 -2.421875 13.578125 -2.984375 C 14.492188 -3.546875 14.953125 -4.253906 14.953125 -5.109375 C 14.953125 -6.210938 13.867188 -7.113281 11.703125 -7.8125 L 8.03125 -9 C 5.164062 -9.925781 3.734375 -11.5625 3.734375 -13.90625 C 3.734375 -15.632812 4.382812 -16.960938 5.6875 -17.890625 C 6.988281 -18.828125 8.828125 -19.296875 11.203125 -19.296875 C 12.953125 -19.296875 14.992188 -19.023438 17.328125 -18.484375 L 17.328125 -15.703125 C 15.066406 -16.390625 13.019531 -16.734375 11.1875 -16.734375 C 9.914062 -16.734375 8.90625 -16.503906 8.15625 -16.046875 C 7.40625 -15.597656 7.03125 -14.988281 7.03125 -14.21875 C 7.03125 -13.28125 7.878906 -12.515625 9.578125 -11.921875 L 13.90625 -10.421875 C 16.863281 -9.390625 18.34375 -7.722656 18.34375 -5.421875 C 18.34375 -3.640625 17.601562 -2.21875 16.125 -1.15625 C 14.644531 -0.09375 12.660156 0.4375 10.171875 0.4375 C 8.023438 0.4375 5.71875 0.0351562 3.25 -0.765625 Z M 3.25 -0.765625 "/></g></g></g><g fill="#ffffff" fill-opacity="1"><g transform="translate(319.185182, 535.689377)"><g><path d="M 8.15625 5.578125 L 8.15625 3.859375 C 9.332031 3.691406 10.019531 2.664062 10.21875 0.78125 L 10.296875 0 L 8.15625 0 L 8.15625 -5.140625 L 13.296875 -5.140625 L 13.296875 -2.03125 C 13.296875 2.851562 11.582031 5.390625 8.15625 5.578125 Z M 8.15625 5.578125 "/></g></g></g><g fill="#ffffff" fill-opacity="1"><g transform="translate(340.636513, 535.689377)"><g><path d="M 19.21875 -0.609375 C 17.1875 0.0859375 15.148438 0.4375 13.109375 0.4375 C 9.835938 0.4375 7.3125 -0.421875 5.53125 -2.140625 C 3.757812 -3.859375 2.875 -6.289062 2.875 -9.4375 C 2.875 -12.53125 3.75 -14.945312 5.5 -16.6875 C 7.257812 -18.425781 9.695312 -19.296875 12.8125 -19.296875 C 14.820312 -19.296875 16.835938 -18.992188 18.859375 -18.390625 L 18.859375 -15.53125 C 16.628906 -16.332031 14.734375 -16.734375 13.171875 -16.734375 C 11.097656 -16.734375 9.46875 -16.082031 8.28125 -14.78125 C 7.101562 -13.488281 6.515625 -11.707031 6.515625 -9.4375 C 6.515625 -7.164062 7.140625 -5.378906 8.390625 -4.078125 C 9.648438 -2.785156 11.375 -2.140625 13.5625 -2.140625 C 15.25 -2.140625 17.132812 -2.523438 19.21875 -3.296875 Z M 19.21875 -0.609375 "/></g></g></g><g fill="#ffffff" fill-opacity="1"><g transform="translate(362.087844, 535.689377)"><g><path d="M 5.359375 0 L 5.359375 -18.875 L 8.78125 -18.875 L 8.78125 -15.015625 C 9.914062 -16.703125 10.96875 -17.835938 11.9375 -18.421875 C 12.90625 -19.003906 14.203125 -19.296875 15.828125 -19.296875 C 16.828125 -19.296875 17.984375 -19.148438 19.296875 -18.859375 L 19.296875 -13.515625 L 16.734375 -13.515625 L 16.734375 -16.203125 C 16.222656 -16.316406 15.75 -16.375 15.3125 -16.375 C 12.9375 -16.375 10.757812 -15.015625 8.78125 -12.296875 L 8.78125 0 Z M 5.359375 0 "/></g></g></g><g fill="#ffffff" fill-opacity="1"><g transform="translate(383.539175, 535.689377)"><g><path d="M 19.09375 -0.75 C 16.71875 0.0390625 14.53125 0.4375 12.53125 0.4375 C 9.300781 0.4375 6.8125 -0.398438 5.0625 -2.078125 C 3.320312 -3.753906 2.453125 -6.140625 2.453125 -9.234375 C 2.453125 -12.160156 3.289062 -14.566406 4.96875 -16.453125 C 6.644531 -18.347656 8.773438 -19.296875 11.359375 -19.296875 C 13.960938 -19.296875 15.878906 -18.515625 17.109375 -16.953125 C 18.347656 -15.390625 18.96875 -12.957031 18.96875 -9.65625 L 18.96875 -8.546875 L 6.109375 -8.546875 C 6.359375 -4.273438 8.660156 -2.140625 13.015625 -2.140625 C 14.859375 -2.140625 16.882812 -2.578125 19.09375 -3.453125 Z M 6.203125 -11.125 L 15.3125 -11.125 L 15.3125 -11.609375 C 15.3125 -15.023438 13.894531 -16.734375 11.0625 -16.734375 C 9.6875 -16.734375 8.570312 -16.238281 7.71875 -15.25 C 6.875 -14.257812 6.367188 -12.882812 6.203125 -11.125 Z M 6.203125 -11.125 "/></g></g></g><g fill="#ffffff" fill-opacity="1"><g transform="translate(404.990506, 535.689377)"><g><path d="M 14.515625 -2.28125 C 12.441406 -0.539062 10.375 0.328125 8.3125 0.328125 C 6.582031 0.328125 5.15625 -0.160156 4.03125 -1.140625 C 2.914062 -2.128906 2.359375 -3.378906 2.359375 -4.890625 C 2.359375 -6.847656 3.226562 -8.421875 4.96875 -9.609375 C 6.707031 -10.804688 9.003906 -11.40625 11.859375 -11.40625 L 13.984375 -11.40625 L 13.984375 -13.015625 C 13.984375 -14.335938 13.6875 -15.285156 13.09375 -15.859375 C 12.5 -16.441406 11.523438 -16.734375 10.171875 -16.734375 C 8.179688 -16.734375 6.125 -16.175781 4 -15.0625 L 4 -18 C 6.4375 -18.863281 8.738281 -19.296875 10.90625 -19.296875 C 13.28125 -19.296875 14.957031 -18.816406 15.9375 -17.859375 C 16.925781 -16.910156 17.421875 -15.273438 17.421875 -12.953125 L 17.421875 -5.046875 C 17.421875 -3.910156 17.539062 -3.132812 17.78125 -2.71875 C 18.03125 -2.3125 18.484375 -2.109375 19.140625 -2.109375 C 19.367188 -2.109375 19.734375 -2.164062 20.234375 -2.28125 L 20.546875 -0.21875 C 19.398438 0.144531 18.523438 0.328125 17.921875 0.328125 C 16.242188 0.328125 15.109375 -0.539062 14.515625 -2.28125 Z M 13.984375 -4.5 L 13.984375 -9.265625 L 12.953125 -9.265625 C 8.253906 -9.265625 5.90625 -7.992188 5.90625 -5.453125 C 5.90625 -4.546875 6.207031 -3.8125 6.8125 -3.25 C 7.414062 -2.695312 8.21875 -2.421875 9.21875 -2.421875 C 10.707031 -2.421875 12.296875 -3.113281 13.984375 -4.5 Z M 13.984375 -4.5 "/></g></g></g><g fill="#ffffff" fill-opacity="1"><g transform="translate(426.441837, 535.689377)"><g><path d="M 1.609375 0 L 1.609375 -18.875 L 4.734375 -18.875 L 4.734375 -15.125 C 5.441406 -16.726562 6.09375 -17.820312 6.6875 -18.40625 C 7.28125 -19 8.035156 -19.296875 8.953125 -19.296875 C 10.929688 -19.296875 12.046875 -17.90625 12.296875 -15.125 C 13.421875 -17.90625 14.828125 -19.296875 16.515625 -19.296875 C 18.742188 -19.296875 19.859375 -17.472656 19.859375 -13.828125 L 19.859375 0 L 16.75 0 L 16.75 -13.0625 C 16.75 -14.351562 16.671875 -15.21875 16.515625 -15.65625 C 16.367188 -16.09375 16.066406 -16.3125 15.609375 -16.3125 C 15.066406 -16.3125 14.476562 -15.894531 13.84375 -15.0625 C 13.21875 -14.238281 12.703125 -13.195312 12.296875 -11.9375 L 12.296875 0 L 9.1875 0 L 9.1875 -13.0625 C 9.1875 -14.351562 9.109375 -15.21875 8.953125 -15.65625 C 8.804688 -16.09375 8.503906 -16.3125 8.046875 -16.3125 C 7.503906 -16.3125 6.925781 -15.90625 6.3125 -15.09375 C 5.695312 -14.289062 5.171875 -13.238281 4.734375 -11.9375 L 4.734375 0 Z M 1.609375 0 "/></g></g></g><g fill="#ffffff" fill-opacity="1"><g transform="translate(447.893168, 535.689377)"><g><path d="M 10.59375 0.4375 C 7.90625 0.4375 5.769531 -0.445312 4.1875 -2.21875 C 2.613281 -4 1.828125 -6.40625 1.828125 -9.4375 C 1.828125 -12.5 2.617188 -14.90625 4.203125 -16.65625 C 5.796875 -18.414062 7.972656 -19.296875 10.734375 -19.296875 C 13.484375 -19.296875 15.648438 -18.421875 17.234375 -16.671875 C 18.828125 -14.921875 19.625 -12.519531 19.625 -9.46875 C 19.625 -6.351562 18.828125 -3.921875 17.234375 -2.171875 C 15.640625 -0.429688 13.425781 0.4375 10.59375 0.4375 Z M 10.65625 -2.140625 C 12.351562 -2.140625 13.664062 -2.78125 14.59375 -4.0625 C 15.519531 -5.34375 15.984375 -7.144531 15.984375 -9.46875 C 15.984375 -11.726562 15.519531 -13.503906 14.59375 -14.796875 C 13.664062 -16.085938 12.378906 -16.734375 10.734375 -16.734375 C 9.085938 -16.734375 7.800781 -16.085938 6.875 -14.796875 C 5.945312 -13.503906 5.484375 -11.71875 5.484375 -9.4375 C 5.484375 -7.164062 5.941406 -5.378906 6.859375 -4.078125 C 7.773438 -2.785156 9.039062 -2.140625 10.65625 -2.140625 Z M 10.65625 -2.140625 "/></g></g></g><g fill="#ffffff" fill-opacity="1"><g transform="translate(469.344499, 535.689377)"><g><path d="M 3.25 -0.765625 L 3.25 -3.859375 C 5.90625 -2.710938 8.203125 -2.140625 10.140625 -2.140625 C 11.515625 -2.140625 12.660156 -2.421875 13.578125 -2.984375 C 14.492188 -3.546875 14.953125 -4.253906 14.953125 -5.109375 C 14.953125 -6.210938 13.867188 -7.113281 11.703125 -7.8125 L 8.03125 -9 C 5.164062 -9.925781 3.734375 -11.5625 3.734375 -13.90625 C 3.734375 -15.632812 4.382812 -16.960938 5.6875 -17.890625 C 6.988281 -18.828125 8.828125 -19.296875 11.203125 -19.296875 C 12.953125 -19.296875 14.992188 -19.023438 17.328125 -18.484375 L 17.328125 -15.703125 C 15.066406 -16.390625 13.019531 -16.734375 11.1875 -16.734375 C 9.914062 -16.734375 8.90625 -16.503906 8.15625 -16.046875 C 7.40625 -15.597656 7.03125 -14.988281 7.03125 -14.21875 C 7.03125 -13.28125 7.878906 -12.515625 9.578125 -11.921875 L 13.90625 -10.421875 C 16.863281 -9.390625 18.34375 -7.722656 18.34375 -5.421875 C 18.34375 -3.640625 17.601562 -2.21875 16.125 -1.15625 C 14.644531 -0.09375 12.660156 0.4375 10.171875 0.4375 C 8.023438 0.4375 5.71875 0.0351562 3.25 -0.765625 Z M 3.25 -0.765625 "/></g></g></g><g fill="#ffffff" fill-opacity="1"><g transform="translate(490.79583, 535.689377)"><g><path d="M 8.15625 5.578125 L 8.15625 3.859375 C 9.332031 3.691406 10.019531 2.664062 10.21875 0.78125 L 10.296875 0 L 8.15625 0 L 8.15625 -5.140625 L 13.296875 -5.140625 L 13.296875 -2.03125 C 13.296875 2.851562 11.582031 5.390625 8.15625 5.578125 Z M 8.15625 5.578125 "/></g></g></g><g fill="#ffffff" fill-opacity="1"><g transform="translate(512.247138, 535.689377)"><g><path d="M 14.515625 -2.28125 C 12.441406 -0.539062 10.375 0.328125 8.3125 0.328125 C 6.582031 0.328125 5.15625 -0.160156 4.03125 -1.140625 C 2.914062 -2.128906 2.359375 -3.378906 2.359375 -4.890625 C 2.359375 -6.847656 3.226562 -8.421875 4.96875 -9.609375 C 6.707031 -10.804688 9.003906 -11.40625 11.859375 -11.40625 L 13.984375 -11.40625 L 13.984375 -13.015625 C 13.984375 -14.335938 13.6875 -15.285156 13.09375 -15.859375 C 12.5 -16.441406 11.523438 -16.734375 10.171875 -16.734375 C 8.179688 -16.734375 6.125 -16.175781 4 -15.0625 L 4 -18 C 6.4375 -18.863281 8.738281 -19.296875 10.90625 -19.296875 C 13.28125 -19.296875 14.957031 -18.816406 15.9375 -17.859375 C 16.925781 -16.910156 17.421875 -15.273438 17.421875 -12.953125 L 17.421875 -5.046875 C 17.421875 -3.910156 17.539062 -3.132812 17.78125 -2.71875 C 18.03125 -2.3125 18.484375 -2.109375 19.140625 -2.109375 C 19.367188 -2.109375 19.734375 -2.164062 20.234375 -2.28125 L 20.546875 -0.21875 C 19.398438 0.144531 18.523438 0.328125 17.921875 0.328125 C 16.242188 0.328125 15.109375 -0.539062 14.515625 -2.28125 Z M 13.984375 -4.5 L 13.984375 -9.265625 L 12.953125 -9.265625 C 8.253906 -9.265625 5.90625 -7.992188 5.90625 -5.453125 C 5.90625 -4.546875 6.207031 -3.8125 6.8125 -3.25 C 7.414062 -2.695312 8.21875 -2.421875 9.21875 -2.421875 C 10.707031 -2.421875 12.296875 -3.113281 13.984375 -4.5 Z M 13.984375 -4.5 "/></g></g></g><g fill="#ffffff" fill-opacity="1"><g transform="translate(533.698492, 535.689377)"><g><path d="M 15.015625 0 L 15.015625 -3.546875 C 13.347656 -0.890625 11.285156 0.4375 8.828125 0.4375 C 6.703125 0.4375 5.019531 -0.390625 3.78125 -2.046875 C 2.550781 -3.703125 1.9375 -5.957031 1.9375 -8.8125 C 1.9375 -11.945312 2.664062 -14.476562 4.125 -16.40625 C 5.582031 -18.332031 7.492188 -19.296875 9.859375 -19.296875 C 11.890625 -19.296875 13.609375 -18.441406 15.015625 -16.734375 L 15.015625 -27.453125 L 18.453125 -27.453125 L 18.453125 0 Z M 15.015625 -14.15625 C 13.421875 -15.875 11.859375 -16.734375 10.328125 -16.734375 C 8.816406 -16.734375 7.644531 -16.070312 6.8125 -14.75 C 5.988281 -13.425781 5.578125 -11.5625 5.578125 -9.15625 C 5.578125 -4.71875 6.894531 -2.5 9.53125 -2.5 C 11.488281 -2.5 13.316406 -3.707031 15.015625 -6.125 Z M 15.015625 -14.15625 "/></g></g></g><g fill="#ffffff" fill-opacity="1"><g transform="translate(555.149847, 535.689377)"><g><path d="M 14.515625 -2.28125 C 12.441406 -0.539062 10.375 0.328125 8.3125 0.328125 C 6.582031 0.328125 5.15625 -0.160156 4.03125 -1.140625 C 2.914062 -2.128906 2.359375 -3.378906 2.359375 -4.890625 C 2.359375 -6.847656 3.226562 -8.421875 4.96875 -9.609375 C 6.707031 -10.804688 9.003906 -11.40625 11.859375 -11.40625 L 13.984375 -11.40625 L 13.984375 -13.015625 C 13.984375 -14.335938 13.6875 -15.285156 13.09375 -15.859375 C 12.5 -16.441406 11.523438 -16.734375 10.171875 -16.734375 C 8.179688 -16.734375 6.125 -16.175781 4 -15.0625 L 4 -18 C 6.4375 -18.863281 8.738281 -19.296875 10.90625 -19.296875 C 13.28125 -19.296875 14.957031 -18.816406 15.9375 -17.859375 C 16.925781 -16.910156 17.421875 -15.273438 17.421875 -12.953125 L 17.421875 -5.046875 C 17.421875 -3.910156 17.539062 -3.132812 17.78125 -2.71875 C 18.03125 -2.3125 18.484375 -2.109375 19.140625 -2.109375 C 19.367188 -2.109375 19.734375 -2.164062 20.234375 -2.28125 L 20.546875 -0.21875 C 19.398438 0.144531 18.523438 0.328125 17.921875 0.328125 C 16.242188 0.328125 15.109375 -0.539062 14.515625 -2.28125 Z M 13.984375 -4.5 L 13.984375 -9.265625 L 12.953125 -9.265625 C 8.253906 -9.265625 5.90625 -7.992188 5.90625 -5.453125 C 5.90625 -4.546875 6.207031 -3.8125 6.8125 -3.25 C 7.414062 -2.695312 8.21875 -2.421875 9.21875 -2.421875 C 10.707031 -2.421875 12.296875 -3.113281 13.984375 -4.5 Z M 13.984375 -4.5 "/></g></g></g><g fill="#ffffff" fill-opacity="1"><g transform="translate(576.601201, 535.689377)"><g><path d="M 3.015625 6.875 L 3.015625 -18.875 L 6.4375 -18.875 L 6.4375 -15.328125 C 8.09375 -17.972656 10.148438 -19.296875 12.609375 -19.296875 C 14.742188 -19.296875 16.429688 -18.46875 17.671875 -16.8125 C 18.910156 -15.164062 19.53125 -12.914062 19.53125 -10.0625 C 19.53125 -6.9375 18.796875 -4.40625 17.328125 -2.46875 C 15.867188 -0.53125 13.957031 0.4375 11.59375 0.4375 C 9.5625 0.4375 7.84375 -0.421875 6.4375 -2.140625 L 6.4375 6.875 Z M 6.4375 -4.71875 C 8.019531 -3 9.582031 -2.140625 11.125 -2.140625 C 12.632812 -2.140625 13.800781 -2.800781 14.625 -4.125 C 15.457031 -5.457031 15.875 -7.316406 15.875 -9.703125 C 15.875 -14.148438 14.554688 -16.375 11.921875 -16.375 C 9.960938 -16.375 8.132812 -15.171875 6.4375 -12.765625 Z M 6.4375 -4.71875 "/></g></g></g><g fill="#ffffff" fill-opacity="1"><g transform="translate(598.052555, 535.689377)"><g><path d="M 19.15625 -0.015625 C 17.445312 0.285156 15.796875 0.4375 14.203125 0.4375 C 11.398438 0.4375 9.492188 -0.0625 8.484375 -1.0625 C 7.472656 -2.070312 6.96875 -3.972656 6.96875 -6.765625 L 6.96875 -15.875 L 2.265625 -15.875 L 2.265625 -18.453125 L 6.96875 -18.453125 L 6.96875 -22.75 L 10.421875 -22.75 L 10.421875 -18.453125 L 18.78125 -18.453125 L 18.78125 -15.875 L 10.421875 -15.875 L 10.421875 -6.203125 C 10.421875 -5.128906 10.484375 -4.390625 10.609375 -3.984375 C 10.742188 -3.578125 11.03125 -3.222656 11.46875 -2.921875 C 12.257812 -2.398438 13.382812 -2.140625 14.84375 -2.140625 C 16.3125 -2.140625 17.75 -2.300781 19.15625 -2.625 Z M 19.15625 -0.015625 "/></g></g></g><g fill="#ffffff" fill-opacity="1"><g transform="translate(619.503909, 535.689377)"><g><path d="M 14.515625 -2.28125 C 12.441406 -0.539062 10.375 0.328125 8.3125 0.328125 C 6.582031 0.328125 5.15625 -0.160156 4.03125 -1.140625 C 2.914062 -2.128906 2.359375 -3.378906 2.359375 -4.890625 C 2.359375 -6.847656 3.226562 -8.421875 4.96875 -9.609375 C 6.707031 -10.804688 9.003906 -11.40625 11.859375 -11.40625 L 13.984375 -11.40625 L 13.984375 -13.015625 C 13.984375 -14.335938 13.6875 -15.285156 13.09375 -15.859375 C 12.5 -16.441406 11.523438 -16.734375 10.171875 -16.734375 C 8.179688 -16.734375 6.125 -16.175781 4 -15.0625 L 4 -18 C 6.4375 -18.863281 8.738281 -19.296875 10.90625 -19.296875 C 13.28125 -19.296875 14.957031 -18.816406 15.9375 -17.859375 C 16.925781 -16.910156 17.421875 -15.273438 17.421875 -12.953125 L 17.421875 -5.046875 C 17.421875 -3.910156 17.539062 -3.132812 17.78125 -2.71875 C 18.03125 -2.3125 18.484375 -2.109375 19.140625 -2.109375 C 19.367188 -2.109375 19.734375 -2.164062 20.234375 -2.28125 L 20.546875 -0.21875 C 19.398438 0.144531 18.523438 0.328125 17.921875 0.328125 C 16.242188 0.328125 15.109375 -0.539062 14.515625 -2.28125 Z M 13.984375 -4.5 L 13.984375 -9.265625 L 12.953125 -9.265625 C 8.253906 -9.265625 5.90625 -7.992188 5.90625 -5.453125 C 5.90625 -4.546875 6.207031 -3.8125 6.8125 -3.25 C 7.414062 -2.695312 8.21875 -2.421875 9.21875 -2.421875 C 10.707031 -2.421875 12.296875 -3.113281 13.984375 -4.5 Z M 13.984375 -4.5 "/></g></g></g><g fill="#ffffff" fill-opacity="1"><g transform="translate(640.955263, 535.689377)"><g><path d="M 1.609375 0 L 1.609375 -18.875 L 4.734375 -18.875 L 4.734375 -15.125 C 5.441406 -16.726562 6.09375 -17.820312 6.6875 -18.40625 C 7.28125 -19 8.035156 -19.296875 8.953125 -19.296875 C 10.929688 -19.296875 12.046875 -17.90625 12.296875 -15.125 C 13.421875 -17.90625 14.828125 -19.296875 16.515625 -19.296875 C 18.742188 -19.296875 19.859375 -17.472656 19.859375 -13.828125 L 19.859375 0 L 16.75 0 L 16.75 -13.0625 C 16.75 -14.351562 16.671875 -15.21875 16.515625 -15.65625 C 16.367188 -16.09375 16.066406 -16.3125 15.609375 -16.3125 C 15.066406 -16.3125 14.476562 -15.894531 13.84375 -15.0625 C 13.21875 -14.238281 12.703125 -13.195312 12.296875 -11.9375 L 12.296875 0 L 9.1875 0 L 9.1875 -13.0625 C 9.1875 -14.351562 9.109375 -15.21875 8.953125 -15.65625 C 8.804688 -16.09375 8.503906 -16.3125 8.046875 -16.3125 C 7.503906 -16.3125 6.925781 -15.90625 6.3125 -15.09375 C 5.695312 -14.289062 5.171875 -13.238281 4.734375 -11.9375 L 4.734375 0 Z M 1.609375 0 "/></g></g></g><g fill="#ffffff" fill-opacity="1"><g transform="translate(662.406617, 535.689377)"><g><path d="M 10.59375 0.4375 C 7.90625 0.4375 5.769531 -0.445312 4.1875 -2.21875 C 2.613281 -4 1.828125 -6.40625 1.828125 -9.4375 C 1.828125 -12.5 2.617188 -14.90625 4.203125 -16.65625 C 5.796875 -18.414062 7.972656 -19.296875 10.734375 -19.296875 C 13.484375 -19.296875 15.648438 -18.421875 17.234375 -16.671875 C 18.828125 -14.921875 19.625 -12.519531 19.625 -9.46875 C 19.625 -6.351562 18.828125 -3.921875 17.234375 -2.171875 C 15.640625 -0.429688 13.425781 0.4375 10.59375 0.4375 Z M 10.65625 -2.140625 C 12.351562 -2.140625 13.664062 -2.78125 14.59375 -4.0625 C 15.519531 -5.34375 15.984375 -7.144531 15.984375 -9.46875 C 15.984375 -11.726562 15.519531 -13.503906 14.59375 -14.796875 C 13.664062 -16.085938 12.378906 -16.734375 10.734375 -16.734375 C 9.085938 -16.734375 7.800781 -16.085938 6.875 -14.796875 C 5.945312 -13.503906 5.484375 -11.71875 5.484375 -9.4375 C 5.484375 -7.164062 5.941406 -5.378906 6.859375 -4.078125 C 7.773438 -2.785156 9.039062 -2.140625 10.65625 -2.140625 Z M 10.65625 -2.140625 "/></g></g></g><g fill="#ffffff" fill-opacity="1"><g transform="translate(683.857972, 535.689377)"><g><path d="M 3.25 -0.765625 L 3.25 -3.859375 C 5.90625 -2.710938 8.203125 -2.140625 10.140625 -2.140625 C 11.515625 -2.140625 12.660156 -2.421875 13.578125 -2.984375 C 14.492188 -3.546875 14.953125 -4.253906 14.953125 -5.109375 C 14.953125 -6.210938 13.867188 -7.113281 11.703125 -7.8125 L 8.03125 -9 C 5.164062 -9.925781 3.734375 -11.5625 3.734375 -13.90625 C 3.734375 -15.632812 4.382812 -16.960938 5.6875 -17.890625 C 6.988281 -18.828125 8.828125 -19.296875 11.203125 -19.296875 C 12.953125 -19.296875 14.992188 -19.023438 17.328125 -18.484375 L 17.328125 -15.703125 C 15.066406 -16.390625 13.019531 -16.734375 11.1875 -16.734375 C 9.914062 -16.734375 8.90625 -16.503906 8.15625 -16.046875 C 7.40625 -15.597656 7.03125 -14.988281 7.03125 -14.21875 C 7.03125 -13.28125 7.878906 -12.515625 9.578125 -11.921875 L 13.90625 -10.421875 C 16.863281 -9.390625 18.34375 -7.722656 18.34375 -5.421875 C 18.34375 -3.640625 17.601562 -2.21875 16.125 -1.15625 C 14.644531 -0.09375 12.660156 0.4375 10.171875 0.4375 C 8.023438 0.4375 5.71875 0.0351562 3.25 -0.765625 Z M 3.25 -0.765625 "/></g></g></g></svg>