<svg xmlns="http://www.w3.org/2000/svg" xmlns:xlink="http://www.w3.org/1999/xlink" width="1080" zoomAndPan="magnify" viewBox="0 0 810 809.999993" height="1080" preserveAspectRatio="xMidYMid meet" version="1.0"><defs><clipPath id="ca3c4b84cc"><path d="M 302.003906 275.378906 L 537.902344 275.378906 L 537.902344 384.394531 L 302.003906 384.394531 Z M 302.003906 275.378906 " clip-rule="nonzero"/></clipPath><clipPath id="fd18472d3d"><path d="M 303.449219 329.101562 C 338.476562 295.574219 346.800781 288.824219 354.976562 285.074219 C 361.800781 281.925781 367.726562 281.398438 375.449219 280.050781 C 385.273438 278.324219 399.75 277.199219 409.125 276.523438 C 415.800781 276 421.949219 275.476562 426.449219 275.699219 C 429.300781 275.925781 430.648438 276.074219 433.5 276.898438 C 438.375 278.324219 446.023438 281.625 452.699219 285.148438 C 460.5 289.351562 470.476562 297.976562 477.148438 301.050781 C 481.351562 303 485.023438 303.148438 487.949219 304.351562 C 489.976562 305.175781 491.101562 305.699219 492.976562 307.050781 C 495.976562 309.074219 500.101562 312.300781 503.699219 316.199219 C 508.425781 321.449219 514.800781 331.351562 517.875 336.601562 C 519.675781 339.601562 520.425781 340.875 521.625 344.023438 C 523.574219 348.976562 525 358.574219 527.324219 363.675781 C 528.898438 367.273438 530.851562 369.898438 532.648438 372.375 C 534.074219 374.25 536.476562 375.523438 537.074219 377.25 C 537.601562 378.601562 537.523438 380.550781 537 381.675781 C 536.625 382.648438 535.648438 383.324219 534.75 383.773438 C 533.925781 384.148438 532.726562 384.375 531.75 384 C 530.550781 383.625 528.824219 382.351562 528.375 381.074219 C 527.925781 379.875 528.148438 377.699219 528.976562 376.648438 C 529.726562 375.601562 531.675781 374.699219 532.949219 374.625 C 533.925781 374.550781 535.050781 375.074219 535.800781 375.601562 C 536.550781 376.199219 537.300781 377.175781 537.449219 378.148438 C 537.675781 379.425781 537.148438 381.523438 536.398438 382.5 C 535.800781 383.324219 534.75 383.851562 533.773438 384.074219 C 532.875 384.226562 531.824219 384.148438 530.773438 383.699219 C 529.199219 383.023438 527.25 381.226562 525.675781 379.351562 C 523.726562 376.949219 522.300781 373.949219 520.5 369.976562 C 517.726562 363.675781 514.050781 350.398438 511.5 344.625 C 510.148438 341.398438 509.476562 340.050781 507.824219 337.5 C 505.800781 334.125 502.726562 329.925781 499.726562 326.476562 C 496.800781 323.023438 492.976562 319.125 490.050781 316.875 C 488.023438 315.226562 486.75 314.625 484.351562 313.425781 C 480.75 311.625 475.351562 310.574219 470.324219 307.949219 C 463.726562 304.425781 455.625 297.074219 448.574219 293.324219 C 442.574219 290.023438 435.300781 287.175781 430.875 285.976562 C 428.324219 285.300781 427.199219 285.226562 424.726562 285.148438 C 420.976562 284.925781 416.101562 285.074219 410.550781 285.601562 C 402.675781 286.273438 388.125 289.351562 381.976562 289.800781 C 379.125 290.023438 377.550781 289.351562 375.601562 289.726562 C 373.726562 290.101562 372.523438 291.226562 370.425781 291.824219 C 367.199219 292.800781 362.625 292.199219 358.125 294.148438 C 351.226562 297.148438 342.300781 304.726562 334.574219 311.324219 C 326.101562 318.449219 314.175781 333.300781 309.601562 335.851562 C 308.175781 336.675781 307.425781 336.824219 306.375 336.675781 C 305.398438 336.523438 304.199219 335.925781 303.523438 335.175781 C 302.851562 334.425781 302.324219 333.148438 302.324219 332.101562 C 302.324219 331.125 303.449219 329.101562 303.449219 329.101562 " clip-rule="nonzero"/></clipPath></defs><g clip-path="url(#ca3c4b84cc)"><g clip-path="url(#fd18472d3d)"><path fill="#e7191f" d="M 299.324219 272.699219 L 540.585938 272.699219 L 540.585938 387.074219 L 299.324219 387.074219 Z M 299.324219 272.699219 " fill-opacity="1" fill-rule="nonzero"/></g></g><path fill="#ff0000" d="M 810.023438 405.019531 C 810.023438 411.644531 809.863281 418.269531 809.535156 424.890625 C 809.210938 431.511719 808.722656 438.117188 808.074219 444.714844 C 807.425781 451.3125 806.613281 457.886719 805.640625 464.445312 C 804.667969 471 803.535156 477.53125 802.242188 484.03125 C 800.949219 490.53125 799.496094 496.996094 797.886719 503.425781 C 796.277344 509.855469 794.507812 516.242188 792.585938 522.585938 C 790.660156 528.929688 788.582031 535.21875 786.351562 541.460938 C 784.117188 547.699219 781.730469 553.882812 779.195312 560.007812 C 776.660156 566.128906 773.972656 572.1875 771.140625 578.179688 C 768.304688 584.171875 765.328125 590.089844 762.203125 595.9375 C 759.078125 601.78125 755.8125 607.546875 752.402344 613.234375 C 748.996094 618.917969 745.449219 624.515625 741.769531 630.027344 C 738.085938 635.539062 734.269531 640.957031 730.324219 646.28125 C 726.375 651.605469 722.296875 656.828125 718.09375 661.953125 C 713.886719 667.074219 709.558594 672.09375 705.109375 677.003906 C 700.65625 681.914062 696.085938 686.714844 691.402344 691.402344 C 686.714844 696.085938 681.914062 700.65625 677.003906 705.109375 C 672.09375 709.558594 667.074219 713.886719 661.953125 718.09375 C 656.828125 722.296875 651.605469 726.375 646.28125 730.324219 C 640.957031 734.269531 635.539062 738.085938 630.027344 741.769531 C 624.515625 745.449219 618.917969 748.996094 613.234375 752.402344 C 607.546875 755.8125 601.78125 759.078125 595.9375 762.203125 C 590.089844 765.328125 584.171875 768.304688 578.179688 771.140625 C 572.1875 773.972656 566.128906 776.660156 560.007812 779.195312 C 553.882812 781.730469 547.699219 784.117188 541.460938 786.351562 C 535.21875 788.582031 528.929688 790.660156 522.585938 792.585938 C 516.242188 794.507812 509.855469 796.277344 503.425781 797.886719 C 496.996094 799.496094 490.53125 800.949219 484.03125 802.242188 C 477.53125 803.535156 471 804.667969 464.445312 805.640625 C 457.886719 806.613281 451.3125 807.425781 444.714844 808.074219 C 438.117188 808.722656 431.511719 809.210938 424.890625 809.535156 C 418.269531 809.863281 411.644531 810.023438 405.019531 810.023438 C 398.390625 810.023438 391.765625 809.863281 385.144531 809.535156 C 378.523438 809.210938 371.917969 808.722656 365.320312 808.074219 C 358.722656 807.425781 352.148438 806.613281 345.589844 805.640625 C 339.035156 804.667969 332.503906 803.535156 326.003906 802.242188 C 319.503906 800.949219 313.039062 799.496094 306.609375 797.886719 C 300.179688 796.277344 293.792969 794.507812 287.449219 792.585938 C 281.105469 790.660156 274.816406 788.582031 268.574219 786.351562 C 262.335938 784.117188 256.152344 781.730469 250.027344 779.195312 C 243.90625 776.660156 237.847656 773.972656 231.855469 771.140625 C 225.863281 768.304688 219.945312 765.328125 214.097656 762.203125 C 208.253906 759.078125 202.488281 755.8125 196.800781 752.402344 C 191.117188 748.996094 185.519531 745.449219 180.007812 741.769531 C 174.496094 738.085938 169.078125 734.269531 163.753906 730.324219 C 158.429688 726.375 153.207031 722.296875 148.082031 718.09375 C 142.960938 713.886719 137.941406 709.558594 133.03125 705.109375 C 128.121094 700.65625 123.320312 696.085938 118.632812 691.402344 C 113.949219 686.714844 109.378906 681.914062 104.925781 677.003906 C 100.476562 672.09375 96.148438 667.074219 91.941406 661.953125 C 87.738281 656.828125 83.660156 651.605469 79.714844 646.28125 C 75.765625 640.957031 71.949219 635.539062 68.265625 630.027344 C 64.585938 624.515625 61.039062 618.917969 57.632812 613.234375 C 54.222656 607.546875 50.957031 601.78125 47.832031 595.9375 C 44.707031 590.089844 41.730469 584.171875 38.894531 578.179688 C 36.0625 572.1875 33.375 566.128906 30.839844 560.007812 C 28.304688 553.882812 25.917969 547.699219 23.6875 541.460938 C 21.453125 535.21875 19.375 528.929688 17.449219 522.585938 C 15.527344 516.242188 13.757812 509.855469 12.148438 503.425781 C 10.539062 496.996094 9.085938 490.53125 7.792969 484.03125 C 6.5 477.53125 5.367188 471 4.394531 464.445312 C 3.421875 457.886719 2.609375 451.3125 1.960938 444.714844 C 1.3125 438.117188 0.824219 431.511719 0.5 424.890625 C 0.171875 418.269531 0.0117188 411.644531 0.0117188 405.019531 C 0.0117188 398.390625 0.171875 391.765625 0.5 385.144531 C 0.824219 378.523438 1.3125 371.917969 1.960938 365.320312 C 2.609375 358.722656 3.421875 352.148438 4.394531 345.589844 C 5.367188 339.035156 6.5 332.503906 7.792969 326.003906 C 9.085938 319.503906 10.539062 313.039062 12.148438 306.609375 C 13.757812 300.179688 15.527344 293.792969 17.449219 287.449219 C 19.375 281.105469 21.453125 274.816406 23.6875 268.574219 C 25.917969 262.335938 28.304688 256.152344 30.839844 250.027344 C 33.375 243.90625 36.0625 237.847656 38.894531 231.855469 C 41.730469 225.863281 44.707031 219.945312 47.832031 214.097656 C 50.957031 208.253906 54.222656 202.488281 57.632812 196.800781 C 61.039062 191.117188 64.585938 185.519531 68.265625 180.007812 C 71.949219 174.496094 75.765625 169.078125 79.714844 163.753906 C 83.660156 158.429688 87.738281 153.207031 91.941406 148.082031 C 96.148438 142.960938 100.476562 137.941406 104.925781 133.03125 C 109.378906 128.121094 113.949219 123.320312 118.632812 118.632812 C 123.320312 113.949219 128.121094 109.378906 133.03125 104.925781 C 137.941406 100.476562 142.960938 96.148438 148.082031 91.941406 C 153.207031 87.738281 158.429688 83.660156 163.753906 79.714844 C 169.078125 75.765625 174.496094 71.949219 180.007812 68.265625 C 185.519531 64.585938 191.117188 61.039062 196.800781 57.632812 C 202.488281 54.222656 208.253906 50.957031 214.097656 47.832031 C 219.945312 44.707031 225.863281 41.730469 231.855469 38.894531 C 237.847656 36.0625 243.90625 33.375 250.027344 30.839844 C 256.152344 28.304688 262.335938 25.917969 268.574219 23.6875 C 274.816406 21.453125 281.105469 19.375 287.449219 17.449219 C 293.792969 15.527344 300.179688 13.757812 306.609375 12.148438 C 313.039062 10.539062 319.503906 9.085938 326.003906 7.792969 C 332.503906 6.5 339.035156 5.367188 345.589844 4.394531 C 352.148438 3.421875 358.722656 2.609375 365.320312 1.960938 C 371.917969 1.3125 378.523438 0.824219 385.144531 0.5 C 391.765625 0.171875 398.390625 0.0117188 405.019531 0.0117188 C 411.644531 0.0117188 418.269531 0.171875 424.890625 0.5 C 431.511719 0.824219 438.117188 1.3125 444.714844 1.960938 C 451.3125 2.609375 457.886719 3.421875 464.445312 4.394531 C 471 5.367188 477.53125 6.5 484.03125 7.792969 C 490.53125 9.085938 496.996094 10.539062 503.425781 12.148438 C 509.855469 13.757812 516.242188 15.527344 522.585938 17.449219 C 528.929688 19.375 535.21875 21.453125 541.460938 23.6875 C 547.699219 25.917969 553.882812 28.304688 560.007812 30.839844 C 566.128906 33.375 572.1875 36.0625 578.179688 38.894531 C 584.171875 41.730469 590.089844 44.707031 595.9375 47.832031 C 601.78125 50.957031 607.546875 54.222656 613.234375 57.632812 C 618.917969 61.039062 624.515625 64.585938 630.027344 68.265625 C 635.539062 71.949219 640.957031 75.765625 646.28125 79.714844 C 651.605469 83.660156 656.828125 87.738281 661.953125 91.941406 C 667.074219 96.148438 672.09375 100.476562 677.003906 104.925781 C 681.914062 109.378906 686.714844 113.949219 691.402344 118.632812 C 696.085938 123.320312 700.65625 128.121094 705.109375 133.03125 C 709.558594 137.941406 713.886719 142.960938 718.09375 148.082031 C 722.296875 153.207031 726.375 158.429688 730.324219 163.753906 C 734.269531 169.078125 738.085938 174.496094 741.769531 180.007812 C 745.449219 185.519531 748.996094 191.117188 752.402344 196.800781 C 755.8125 202.488281 759.078125 208.253906 762.203125 214.097656 C 765.328125 219.945312 768.304688 225.863281 771.140625 231.855469 C 773.972656 237.847656 776.660156 243.90625 779.195312 250.027344 C 781.730469 256.152344 784.117188 262.335938 786.351562 268.574219 C 788.582031 274.816406 790.660156 281.105469 792.585938 287.449219 C 794.507812 293.792969 796.277344 300.179688 797.886719 306.609375 C 799.496094 313.039062 800.949219 319.503906 802.242188 326.003906 C 803.535156 332.503906 804.667969 339.035156 805.640625 345.589844 C 806.613281 352.148438 807.425781 358.722656 808.074219 365.320312 C 808.722656 371.917969 809.210938 378.523438 809.535156 385.144531 C 809.863281 391.765625 810.023438 398.390625 810.023438 405.019531 Z M 810.023438 405.019531 " fill-opacity="1" fill-rule="nonzero"/><path fill="#e8e8e8" d="M 600.238281 347.640625 L 351.148438 203.828125 C 306.96875 178.324219 251.765625 210.1875 251.765625 261.207031 L 251.765625 548.828125 C 251.765625 599.832031 306.976562 631.710938 351.148438 606.207031 L 600.238281 462.398438 C 644.410156 436.894531 644.410156 373.140625 600.238281 347.640625 Z M 600.238281 347.640625 " fill-opacity="1" fill-rule="nonzero"/></svg>